# xmcd
#
# Track frame offsets:
#	150
#	19815
#	35739
#	50889
#	69255
#	84351
#	95960
#	108542
#
# Disc length: 1652 seconds
# Revision: 1
# Processed by: cddbd v1.5.2PL0 Copyright (c) Steve Scherf et al.
# Submitted via: dBpowerAMP V12.0
#
DISCID=6d067208
DTITLE=Suzie Vinnick - Live at Bluesville
DYEAR=2012
DGENRE=Blues
TTITLE0=You'll Be Mine
TTITLE1=Looking For A Kiss
TTITLE2=Everybody Gotta Walk
TTITLE3=Can't Find My Way Home
TTITLE4=Calling Out Your Name
TTITLE5=How'd You Know I Missed You
TTITLE6=Shelter Me
TTITLE7=All Night, All Day
EXTD=
EXTT0=
EXTT1=
EXTT2=
EXTT3=
EXTT4=
EXTT5=
EXTT6=
EXTT7=
PLAYORDER=
